<?xml version="1.0" encoding="UTF-8" standalone="no"?>
<!-- Created with Inkscape (http://www.inkscape.org/) -->

<svg
   version="1.1"
   id="svg182"
   width="799.99939"
   height="374.75269"
   viewBox="0 0 799.99938 374.75269"
   sodipodi:docname="Logo DeÌpartement Territoire Belfort - 2023.svg"
   inkscape:version="1.2 (dc2aeda, 2022-05-15)"
   xmlns:inkscape="http://www.inkscape.org/namespaces/inkscape"
   xmlns:sodipodi="http://sodipodi.sourceforge.net/DTD/sodipodi-0.dtd"
   xmlns="http://www.w3.org/2000/svg"
   xmlns:svg="http://www.w3.org/2000/svg">
  <defs
     id="defs186" />
  <sodipodi:namedview
     id="namedview184"
     pagecolor="#ffffff"
     bordercolor="#000000"
     borderopacity="0.25"
     inkscape:showpageshadow="2"
     inkscape:pageopacity="0.0"
     inkscape:pagecheckerboard="0"
     inkscape:deskcolor="#d1d1d1"
     showgrid="false"
     inkscape:zoom="1.1548278"
     inkscape:cx="373.21581"
     inkscape:cy="111.70496"
     inkscape:window-width="1920"
     inkscape:window-height="1080"
     inkscape:window-x="0"
     inkscape:window-y="0"
     inkscape:window-maximized="0"
     inkscape:current-layer="g190">
    <inkscape:page
       x="0"
       y="0"
       id="page188"
       width="799.99939"
       height="374.75269" />
  </sodipodi:namedview>
  <g
     id="g190"
     inkscape:groupmode="layer"
     inkscape:label="Page 1"
     transform="matrix(1.3333333,0,0,-1.3333333,-409.00343,430.86495)">
    <g
       id="g1064">
      <g
         id="g1004">
        <path
           d="m 531.03185,153.00711 h 5.72088 v -22.67279 h 12.66246 v -4.98491 h -18.38334 z"
           style="fill:#bda87d;fill-opacity:1;fill-rule:nonzero;stroke:none;stroke-width:1.62111"
           id="path252" />
        <path
           d="m 552.6848,136.21715 c 0,6.61736 4.28945,11.398 10.90843,11.398 6.49415,0 9.88389,-4.65744 9.88389,-11.19374 0,-0.53172 -0.0794,-1.51249 -0.16212,-2.04422 h -15.07466 c 0.24478,-3.26653 3.18709,-4.86007 6.49577,-4.86007 2.65537,0 5.43395,0.69383 7.6808,2.12365 h 0.28532 v -4.90061 c -2.57432,-1.39091 -5.71927,-1.96154 -8.7021,-1.96154 -6.94482,0 -11.31533,4.45156 -11.31533,11.43853 m 15.48319,2.12365 c 0,2.94231 -1.63569,4.74011 -4.57476,4.74011 -3.06551,0 -5.10811,-1.67622 -5.39342,-4.74011 z"
           style="fill:#bda87d;fill-opacity:1;fill-rule:nonzero;stroke:none;stroke-width:1.62111"
           id="path254" />
        <path
           d="m 590.63815,153.00711 h 10.00871 c 8.74263,0 14.38083,-5.02543 14.38083,-13.76806 0,-8.74262 -5.6382,-13.88964 -14.38083,-13.88964 h -10.00871 z m 10.00871,-22.67279 c 5.39342,0 8.53837,3.51456 8.53837,8.90473 0,5.39343 -3.14495,8.78478 -8.53837,8.78478 h -4.28783 v -17.68951 z"
           style="fill:#bda87d;fill-opacity:1;fill-rule:nonzero;stroke:none;stroke-width:1.62111"
           id="path256" />
        <path
           d="m 619.31844,136.21715 c 0,6.61736 4.28945,11.398 10.9068,11.398 6.49578,0 9.88551,-4.65744 9.88551,-11.19374 0,-0.53172 -0.0794,-1.51249 -0.16211,-2.04422 h -15.07467 c 0.24479,-3.26653 3.18709,-4.86007 6.49415,-4.86007 2.657,0 5.43557,0.69383 7.68243,2.12365 h 0.28531 v -4.90061 c -2.57432,-1.39091 -5.71926,-1.96154 -8.7021,-1.96154 -6.94482,0 -11.31532,4.45156 -11.31532,11.43853 m 15.48319,2.12365 c 0,2.94231 -1.6357,4.74011 -4.57639,4.74011 -3.06389,0 -5.10648,-1.67622 -5.3918,-4.74011 z m -7.35334,11.31694 4.28944,4.61529 h 5.80032 v -0.28531 l -5.3918,-4.65744 h -4.69796 z"
           style="fill:#bda87d;fill-opacity:1;fill-rule:nonzero;stroke:none;stroke-width:1.62111"
           id="path258" />
        <path
           d="m 645.42506,147.04274 h 5.43233 v -2.98122 c 1.43143,2.32791 4.08519,3.47079 6.86376,3.47079 6.12778,0 9.76393,-5.22969 9.76393,-11.31532 0,-6.16993 -3.63615,-11.35747 -9.76393,-11.35747 -2.77857,0 -5.43233,1.1445 -6.86376,3.47241 v -9.31488 h -5.43233 z m 16.62607,-10.82575 c 0,3.51294 -2.08312,6.45362 -5.63821,6.45362 -3.55347,0 -5.75817,-2.94068 -5.75817,-6.45362 0,-3.55509 2.2047,-6.49578 5.75817,-6.49578 3.55509,0 5.63821,2.94069 5.63821,6.49578"
           style="fill:#bda87d;fill-opacity:1;fill-rule:nonzero;stroke:none;stroke-width:1.62111"
           id="path260" />
        <path
           d="m 671.65375,136.21715 c 0,6.12778 3.63614,11.31532 9.80445,11.31532 2.73643,0 5.3918,-1.14288 6.82162,-3.47079 v 2.98122 h 5.43395 v -21.69365 h -5.43395 v 2.98284 c -1.42982,-2.32791 -4.08519,-3.47241 -6.82162,-3.47241 -6.16831,0 -9.80445,5.18754 -9.80445,11.35747 m 16.83033,0 c 0,3.51294 -2.20633,6.45362 -5.75979,6.45362 -3.55347,0 -5.63821,-2.94068 -5.63821,-6.45362 0,-3.55509 2.08474,-6.49577 5.63821,-6.49577 3.55346,0 5.75979,2.94068 5.75979,6.49577"
           style="fill:#bda87d;fill-opacity:1;fill-rule:nonzero;stroke:none;stroke-width:1.62111"
           id="path262" />
        <path
           d="m 700.00609,147.04274 h 5.43233 v -3.18548 c 1.10397,2.16418 2.98284,3.67505 5.59768,3.67505 0.65331,0 1.34714,-0.12158 1.91939,-0.48957 v -4.53424 h -0.28531 c -0.48958,0.16211 -1.10398,0.20426 -1.63408,0.20426 -3.59561,0 -5.59768,-2.65699 -5.59768,-6.21046 v -11.15321 h -5.43233 z"
           style="fill:#bda87d;fill-opacity:1;fill-rule:nonzero;stroke:none;stroke-width:1.62111"
           id="path264" />
        <path
           d="m 720.14704,142.5085 h -4.20839 v 4.53424 h 4.20839 v 5.39342 h 5.43233 v -5.39342 h 5.27022 v -4.53424 h -5.27022 v -17.15941 h -5.43233 z"
           style="fill:#bda87d;fill-opacity:1;fill-rule:nonzero;stroke:none;stroke-width:1.62111"
           id="path266" />
        <path
           d="m 733.34333,136.21715 c 0,6.61736 4.28945,11.398 10.90843,11.398 6.49415,0 9.88551,-4.65744 9.88551,-11.19374 0,-0.53172 -0.0811,-1.51249 -0.16374,-2.04422 h -15.07466 c 0.24478,-3.26653 3.18709,-4.86007 6.49577,-4.86007 2.65537,0 5.43395,0.69383 7.6808,2.12365 h 0.28532 v -4.90061 c -2.57432,-1.39091 -5.71927,-1.96154 -8.7021,-1.96154 -6.94482,0 -11.31533,4.45156 -11.31533,11.43853 m 15.48319,2.12365 c 0,2.94231 -1.63569,4.74011 -4.57476,4.74011 -3.06389,0 -5.10811,-1.67622 -5.39342,-4.74011 z"
           style="fill:#bda87d;fill-opacity:1;fill-rule:nonzero;stroke:none;stroke-width:1.62111"
           id="path268" />
        <path
           d="m 759.44866,147.04274 h 5.43233 v -2.81911 c 1.22555,2.12365 3.67829,3.39136 6.29313,3.39136 2.93907,0 5.14702,-1.38929 6.16669,-3.88093 1.34876,2.44949 4.08519,3.88093 6.94482,3.88093 4.53424,0 6.90591,-3.14657 6.90591,-7.68081 v -14.58509 h -5.43557 v 12.78729 c 0,2.61484 -1.10235,4.61691 -3.71719,4.61691 -2.61323,0 -4.00251,-2.08312 -4.00251,-4.61691 v -12.78729 h -5.43395 v 12.78729 c 0,2.61484 -1.10236,4.61691 -3.7172,4.61691 -2.61484,0 -4.00413,-2.08312 -4.00413,-4.61691 v -12.78729 h -5.43233 z"
           style="fill:#bda87d;fill-opacity:1;fill-rule:nonzero;stroke:none;stroke-width:1.62111"
           id="path270" />
        <path
           d="m 796.21762,136.21715 c 0,6.61736 4.28945,11.398 10.90681,11.398 6.49577,0 9.8855,-4.65744 9.8855,-11.19374 0,-0.53172 -0.0794,-1.51249 -0.16211,-2.04422 h -15.07467 c 0.24479,-3.26653 3.1871,-4.86007 6.49416,-4.86007 2.65699,0 5.43557,0.69383 7.68242,2.12365 h 0.28531 v -4.90061 c -2.57431,-1.39091 -5.71926,-1.96154 -8.70209,-1.96154 -6.94482,0 -11.31533,4.45156 -11.31533,11.43853 m 15.48319,2.12365 c 0,2.94231 -1.6357,4.74011 -4.57638,4.74011 -3.06389,0 -5.10649,-1.67622 -5.3918,-4.74011 z"
           style="fill:#bda87d;fill-opacity:1;fill-rule:nonzero;stroke:none;stroke-width:1.62111"
           id="path272" />
        <path
           d="m 822.32408,147.04274 h 5.43233 v -2.81911 c 1.38929,2.24848 3.79987,3.39136 6.57845,3.39136 4.53423,0 7.67918,-3.10442 7.67918,-7.64028 v -14.62562 h -5.43233 v 12.78729 c 0,2.8191 -1.39091,4.61691 -4.24892,4.61691 -2.77857,0 -4.57638,-1.83834 -4.57638,-4.61691 v -12.78729 h -5.43233 z"
           style="fill:#bda87d;fill-opacity:1;fill-rule:nonzero;stroke:none;stroke-width:1.62111"
           id="path274" />
        <path
           d="m 850.06478,142.5085 h -4.20839 v 4.53424 h 4.20839 v 5.39342 h 5.43233 v -5.39342 h 5.27021 v -4.53424 h -5.27021 v -17.15941 h -5.43233 z"
           style="fill:#bda87d;fill-opacity:1;fill-rule:nonzero;stroke:none;stroke-width:1.62111"
           id="path276" />
      </g>
      <g
         id="g1027">
        <path
           d="m 527.93894,280.29655 h 35.46981 v -3.73503 h -35.46981 z m 12.44361,-10.57772 h -12.44361 v 3.73341 h 16.17864 v -35.46981 h -3.73503 z m 6.84593,3.73341 h 16.18027 v -3.73341 h -12.44686 v -31.7364 h -3.73341 z"
           style="fill:#001478;fill-opacity:1;fill-rule:nonzero;stroke:none;stroke-width:1.62111"
           id="path278" />
        <path
           d="m 567.45033,280.2972 h 30.80264 v -3.73503 h -27.06923 v -34.84731 h 27.06923 v -3.7334 h -30.80264 z m 6.84593,-6.84594 h 23.95671 v -3.7334 h -20.2233 v -4.97842 h 18.41901 v -3.73341 h -22.15242 z m 0,-15.55613 h 22.15242 v -3.73341 h -18.41901 v -5.60092 h 20.2233 v -3.73341 h -23.95671 z"
           style="fill:#001478;fill-opacity:1;fill-rule:nonzero;stroke:none;stroke-width:1.62111"
           id="path280" />
        <path
           d="m 602.6058,280.2972 h 19.78885 c 7.21879,0 15.68096,-4.29431 15.68096,-14.0015 0,-7.46681 -5.16484,-11.6363 -11.13862,-13.19256 l 13.00452,-15.12168 h -5.04002 l -15.43132,18.04615 h 2.92448 c 6.09698,0 11.94755,3.48538 11.94755,10.26809 0,6.78271 -5.85057,10.26647 -11.94755,10.26647 h -16.05544 v -38.58071 h -3.73341 z m 6.84594,-6.84594 h 12.94291 c 5.10324,0 8.83665,-2.73804 8.83665,-7.15556 0,-4.41913 -3.73341,-7.15556 -8.83665,-7.15556 h -9.20951 v -0.62413 l 17.61008,-20.53455 h -4.91519 l -12.69489,14.87365 v -14.87365 h -3.7334 z m 12.94291,-10.57771 c 3.98144,0 5.10324,1.92911 5.10324,3.42215 0,1.49304 -1.1218,3.42216 -5.10324,3.42216 h -9.20951 v -6.84431 z"
           style="fill:#001478;fill-opacity:1;fill-rule:nonzero;stroke:none;stroke-width:1.62111"
           id="path282" />
        <path
           d="m 642.11735,280.2972 h 19.78885 c 7.21879,0 15.68096,-4.29431 15.68096,-14.0015 0,-7.46681 -5.16484,-11.6363 -11.13862,-13.19256 l 13.00452,-15.12168 h -5.04002 l -15.43132,18.04615 h 2.92448 c 6.0986,0 11.94755,3.48538 11.94755,10.26809 0,6.78271 -5.84895,10.26647 -11.94755,10.26647 h -16.05544 v -38.58071 h -3.73341 z m 6.84594,-6.84594 h 12.94291 c 5.10324,0 8.83665,-2.73804 8.83665,-7.15556 0,-4.41913 -3.73341,-7.15556 -8.83665,-7.15556 h -9.20951 v -0.62413 l 17.61008,-20.53455 h -4.91519 l -12.69489,14.87365 v -14.87365 h -3.7334 z m 12.94291,-10.57771 c 3.98144,0 5.10324,1.92911 5.10324,3.42215 0,1.49304 -1.1218,3.42216 -5.10324,3.42216 h -9.20951 v -6.84431 z"
           style="fill:#001478;fill-opacity:1;fill-rule:nonzero;stroke:none;stroke-width:1.62111"
           id="path284" />
        <path
           d="m 681.62955,280.29655 h 3.73341 v -42.31574 h -3.73341 z m 6.84432,0 h 3.7334 v -42.31574 h -3.7334 z"
           style="fill:#001478;fill-opacity:1;fill-rule:nonzero;stroke:none;stroke-width:1.62111"
           id="path286" />
        <path
           d="m 696.25355,280.29655 h 35.46981 v -3.73503 h -35.46981 z m 12.44362,-10.57772 h -12.44362 v 3.73341 h 16.17703 v -35.46981 h -3.73341 z m 6.84593,3.73341 h 16.17864 v -3.73341 h -12.44523 v -31.7364 h -3.73341 z"
           style="fill:#001478;fill-opacity:1;fill-rule:nonzero;stroke:none;stroke-width:1.62111"
           id="path288" />
        <path
           d="m 732.65372,259.13965 c 0,12.38201 9.39593,22.09082 21.77956,22.09082 12.38201,0 21.77957,-9.70881 21.77957,-22.09082 0,-12.38363 -9.39756,-22.09082 -21.77957,-22.09082 -12.38363,0 -21.77956,9.70719 -21.77956,22.09082 m 39.82572,0 c 0,10.32969 -7.71809,18.35741 -18.04616,18.35741 -10.32969,0 -18.04616,-8.02772 -18.04616,-18.35741 0,-10.32969 7.71647,-18.35741 18.04616,-18.35741 10.32807,0 18.04616,8.02772 18.04616,18.35741 m -32.98141,0 c 0,8.65022 6.28503,15.24489 14.93525,15.24489 8.6486,0 14.93363,-6.59467 14.93363,-15.24489 0,-8.65022 -6.28503,-15.2465 -14.93363,-15.2465 -8.65022,0 -14.93525,6.59628 -14.93525,15.2465 m 26.13547,0 c 0,6.59628 -4.60556,11.51148 -11.20022,11.51148 -6.59628,0 -11.20184,-4.9152 -11.20184,-11.51148 0,-6.59628 4.60556,-11.5131 11.20184,-11.5131 6.59466,0 11.20022,4.91682 11.20022,11.5131"
           style="fill:#001478;fill-opacity:1;fill-rule:nonzero;stroke:none;stroke-width:1.62111"
           id="path290" />
        <path
           d="m 780.25443,280.29655 h 3.7334 v -42.31574 h -3.7334 z m 6.84431,0 h 3.73341 v -42.31574 h -3.73341 z"
           style="fill:#001478;fill-opacity:1;fill-rule:nonzero;stroke:none;stroke-width:1.62111"
           id="path292" />
        <path
           d="m 795.49899,280.2972 h 19.78884 c 7.21879,0 15.68096,-4.29431 15.68096,-14.0015 0,-7.46681 -5.16484,-11.6363 -11.13862,-13.19256 l 13.00452,-15.12168 h -5.04002 l -15.43131,18.04615 h 2.92447 c 6.0986,0 11.94756,3.48538 11.94756,10.26809 0,6.78271 -5.84896,10.26647 -11.94756,10.26647 h -16.05544 v -38.58071 h -3.7334 z m 6.84593,-6.84594 h 12.94291 c 5.10325,0 8.83665,-2.73804 8.83665,-7.15556 0,-4.41913 -3.7334,-7.15556 -8.83665,-7.15556 h -9.2095 v -0.62413 l 17.61008,-20.53455 h -4.9152 l -12.69488,14.87365 v -14.87365 h -3.73341 z m 12.94291,-10.57771 c 3.98144,0 5.10325,1.92911 5.10325,3.42215 0,1.49304 -1.12181,3.42216 -5.10325,3.42216 h -9.2095 v -6.84431 z"
           style="fill:#001478;fill-opacity:1;fill-rule:nonzero;stroke:none;stroke-width:1.62111"
           id="path294" />
        <path
           d="m 835.01054,280.2972 h 30.80264 v -3.73503 h -27.06923 v -34.84731 h 27.06923 v -3.7334 h -30.80264 z m 6.84593,-6.84594 h 23.95671 v -3.7334 h -20.2233 v -4.97842 h 18.41901 v -3.73341 h -22.15242 z m 0,-15.55613 h 22.15242 v -3.73341 h -18.41901 v -5.60092 h 20.2233 v -3.73341 h -23.95671 z"
           style="fill:#001478;fill-opacity:1;fill-rule:nonzero;stroke:none;stroke-width:1.62111"
           id="path296" />
        <path
           d="m 531.03185,216.56534 h 15.74418 c 13.50382,0 22.46368,-7.59164 22.46368,-21.15706 0,-13.50381 -8.89826,-21.15868 -22.46368,-21.15868 h -15.74418 z m 15.74418,-38.58233 c 11.82273,0 18.73027,6.28665 18.73027,17.42527 0,11.20023 -6.97076,17.42366 -18.73027,17.42366 h -12.01077 v -34.84893 z m -8.89825,31.7364 h 8.89825 c 10.32969,0 15.61774,-5.10162 15.61774,-14.31113 0,-9.21112 -5.28805,-14.31274 -15.61774,-14.31274 h -8.89825 z m 8.89825,-24.89047 c 8.5254,0 11.88433,3.67181 11.88433,10.57934 0,6.84432 -3.35893,10.57772 -11.88433,10.57772 h -5.16484 v -21.15706 z"
           style="fill:#001478;fill-opacity:1;fill-rule:nonzero;stroke:none;stroke-width:1.62111"
           id="path298" />
        <path
           d="m 573.28193,216.56534 h 30.80265 v -3.7334 h -27.06924 v -34.84893 h 27.06924 v -3.73341 h -30.80265 z m 6.84594,-6.84593 h 23.95671 V 205.986 h -20.22331 v -4.97841 h 18.41902 v -3.73341 h -22.15242 z m 0,-15.55614 h 22.15242 v -3.7334 h -18.41902 v -5.60093 h 20.22331 v -3.7334 h -23.95671 z"
           style="fill:#001478;fill-opacity:1;fill-rule:nonzero;stroke:none;stroke-width:1.62111"
           id="path300" />
      </g>
      <g
         id="g1013">
        <path
           d="m 779.50029,195.40764 c 0,13.06773 9.33595,22.21402 22.40207,22.21402 13.06936,0 22.40207,-9.14629 22.40207,-22.21402 0,-13.06774 -9.33271,-22.21565 -22.40207,-22.21565 -13.06612,0 -22.40207,9.14791 -22.40207,22.21565 m 32.67015,0 c 0,6.53305 -3.7334,11.32505 -10.26808,11.32505 -6.53468,0 -10.26809,-4.792 -10.26809,-11.32505 0,-6.22343 3.73341,-11.32505 10.26809,-11.32505 6.53468,0 10.26808,4.79037 10.26808,11.32505"
           style="fill:#001478;fill-opacity:1;fill-rule:nonzero;stroke:none;stroke-width:1.62111"
           id="path302" />
        <path
           d="m 868.1727,174.87211 v -0.62251 h -14.0015 l -12.13236,15.61936 V 174.2496 h -11.82597 v 42.31574 h 19.91367 c 9.64559,0 16.80277,-4.16948 16.80277,-13.69024 0,-7.03236 -5.35127,-12.75649 -12.38363,-12.75649 h -0.0632 z m -13.37899,27.56691 c 0,2.61323 -2.05394,4.16949 -4.66717,4.16949 h -8.0877 v -8.40058 h 8.0877 c 2.61323,0 4.66717,1.55465 4.66717,4.23109"
           style="fill:#001478;fill-opacity:1;fill-rule:nonzero;stroke:none;stroke-width:1.62111"
           id="path304" />
        <path
           d="M 882.48253,206.29742 H 870.0373 v 10.26809 h 36.71482 v -10.26809 h -12.44524 v -32.04765 h -11.82435 z"
           style="fill:#001478;fill-opacity:1;fill-rule:nonzero;stroke:none;stroke-width:1.62111"
           id="path306" />
        <path
           d="m 625.67399,216.56534 h 20.53293 c 8.15254,0 14.93363,-3.1109 14.93363,-11.20022 0,-4.04466 -2.05394,-7.09234 -5.5993,-9.02146 4.60394,-1.86751 6.84431,-5.28967 6.84431,-10.26809 0,-8.39895 -7.15556,-11.8211 -15.55614,-11.8211 h -21.15543 z m 19.724,-16.30184 c 2.4884,0 4.35591,0.74571 4.35591,3.23573 0,2.48839 -1.86751,3.23572 -4.35591,3.23572 h -8.33735 v -6.47145 z m 0.93375,-16.17864 c 2.4884,0 4.66717,1.05858 4.66717,3.54698 0,2.4884 -2.17877,3.54698 -4.66717,3.54698 h -9.2711 v -7.09396 z"
           style="fill:#001478;fill-opacity:1;fill-rule:nonzero;stroke:none;stroke-width:1.62111"
           id="path308" />
        <path
           d="m 668.30276,216.56534 h 31.73316 v -10.26646 h -19.91043 v -5.60093 h 18.04292 v -9.95521 h -18.04292 v -6.22181 h 19.91043 v -10.26646 h -31.73316 z"
           style="fill:#001478;fill-opacity:1;fill-rule:nonzero;stroke:none;stroke-width:1.62111"
           id="path310" />
        <path
           d="m 707.19845,216.56534 h 11.82273 v -32.04441 h 18.04454 v -10.26646 h -29.86727 z"
           style="fill:#001478;fill-opacity:1;fill-rule:nonzero;stroke:none;stroke-width:1.62111"
           id="path312" />
        <path
           d="m 742.35977,216.56534 h 31.73315 V 206.29888 H 754.1825 v -5.60093 h 18.04453 v -9.95521 H 754.1825 v -16.48827 h -11.82273 z"
           style="fill:#001478;fill-opacity:1;fill-rule:nonzero;stroke:none;stroke-width:1.62111"
           id="path314" />
      </g>
    </g>
    <g
       id="g1072">
      <path
         d="m 395.86205,234.70617 30.98421,18.20341 h -30.98421 z"
         style="fill:#001478;fill-opacity:1;fill-rule:nonzero;stroke:none;stroke-width:1.62111"
         id="path316" />
      <path
         d="m 383.91514,323.14434 -15.43617,0.003 -0.002,-15.43293 h -15.4459 l 0.002,15.43131 -15.41997,0.003 -0.003,-15.43455 h -15.42969 l 0.003,15.43131 -15.42483,0.003 -0.006,-30.86262 77.15818,-0.003 z"
         style="fill:#001478;fill-opacity:1;fill-rule:nonzero;stroke:none;stroke-width:1.62111"
         id="path318" />
      <path
         d="m 483.43795,196.21527 -37.07309,-21.78118 h 37.07309 z"
         style="fill:#001478;fill-opacity:1;fill-rule:nonzero;stroke:none;stroke-width:1.62111"
         id="path320" />
      <path
         d="m 503.47855,128.44086 -92.92668,46.80135 c -16.44775,8.28223 -26.66558,24.86939 -26.66558,43.28678 v 46.34743 h 84.10624 v -28.72925 c 0,-16.94704 -6.99994,-21.18299 -16.60337,-26.99304 l -34.09673,-20.03849 16.38776,-8.25306 25.61673,15.02442 c 10.18865,6.16344 24.14151,14.60454 24.14151,40.26017 v 44.16056 H 368.45984 v -61.77874 c 0,-24.27769 13.46977,-46.14479 35.15369,-57.06457 l 99.86502,-50.29482 z"
         style="fill:#001478;fill-opacity:1;fill-rule:nonzero;stroke:none;stroke-width:1.62111"
         id="path322" />
      <path
         d="M 503.47855,93.898167 396.6752,147.6881 c -26.91848,13.55731 -43.64019,40.70112 -43.64019,70.84073 v 61.77874 h -15.42645 v -61.77874 c 0,-36.00153 19.97366,-68.42528 52.12668,-84.61851 L 503.47855,76.626899 Z"
         style="fill:#001478;fill-opacity:1;fill-rule:nonzero;stroke:none;stroke-width:1.62111"
         id="path324" />
      <path
         d="M 503.47855,59.355469 382.7969,120.13399 c -37.38757,18.82915 -60.61316,56.53285 -60.61316,98.39468 v 61.77874 h -15.42645 v -61.77874 c 0,-47.72376 26.47915,-90.70577 69.10128,-112.17084 L 503.47855,42.084202 Z"
         style="fill:#001478;fill-opacity:1;fill-rule:nonzero;stroke:none;stroke-width:1.62111"
         id="path326" />
    </g>
  </g>
</svg>
